<svg xmlns="http://www.w3.org/2000/svg" width="658" height="658">
<path d="m330.125 15.688 3.12.005c15.783.047 31.168.636 46.755 3.307l3.19.52C430.845 27.414 477.374 45.718 516 75l3.05 2.227C537.857 91.032 555.99 107.106 571 125l1.379 1.64C586.414 143.407 598.182 161.004 609 180l1.17 2.02c16.6 28.725 26.854 61.492 32.83 93.98l.637 3.376c6.413 35.53 6.005 74.168-.637 109.624l-.601 3.362C637.713 417.931 629.5 443.662 618 467l-1.953 4.066C597.557 509.151 571.337 544.496 539 572l-2.898 2.527c-7.7 6.675-15.706 12.704-24.102 18.473l-1.788 1.246C500.186 601.219 489.787 607.284 479 613l-2.51 1.348C446.332 630.444 413.663 640.512 380 646l-2.92.5c-30.953 5.13-65.182 4.795-96.08-.5l-3.19-.52c-30.143-4.993-60.79-13.793-87.76-28.388-2.331-1.242-4.688-2.427-7.05-3.612-34.787-17.573-67.955-43.484-93-73.48l-1.338-1.583c-17.923-21.27-32.818-44.338-44.74-69.478-.61-1.283-1.229-2.563-1.856-3.84C30.415 441.328 22.646 414.99 18 389l-.628-3.354c-6.42-35.538-6.016-74.18.628-109.646l.601-3.362C31.172 204.05 69.172 134.97 124.215 91.23c2.824-2.26 5.547-4.616 8.285-6.98 39.73-33.169 90.166-54.853 140.813-64.063l3.245-.59c17.82-3.043 35.514-3.976 53.567-3.91Z"/>
<path d="M385 284c4.044 3.249 7.773 6.808 11.449 10.463a319.242 319.242 0 0 0 4.742 4.58C407.59 305.185 413.114 311.576 418 319l1.327 2.01c23.228 35.42 39.176 73.125 38.986 116.24l-.007 2.039c-.057 11.147-.723 21.851-3.306 32.711l-.602 2.55C448.914 496.997 439.026 516.418 424 534l-2.113 2.52c-5.41 6.256-11.313 11.474-17.887 16.48-.779.594-1.557 1.189-2.36 1.8-26.588 19.407-57.044 26.349-89.663 22.048-24.085-3.782-43.489-14.31-61.977-29.848l-2.008-1.629c-24.942-20.524-40.387-56.049-43.781-87.688-1.338-17.01-.697-33.983 2.789-50.683l.602-2.94c5.384-25.663 14.825-48.687 28.398-71.06l1.934-3.242c16.816-27.863 40.981-53.607 73.254-62.695 26.381-6.436 52.25 1.193 73.812 16.937Z" fill="#fff"/>
<path d="M525.375 178a209.34 209.34 0 0 1 5.625 5l1.898 1.749c35.89 33.525 63.088 85.131 65.263 134.941.386 36.235.386 36.235-3.161 51.31l-.554 2.418c-4.732 19.8-14.319 37.113-27.063 52.869a291.664 291.664 0 0 0-3.79 4.826C544.91 454.897 515.86 472.078 486 477c-3.563.125-3.563.125-6 0l.275-1.771c9.019-60.084-3.684-120.271-39.65-169.854-5.227-7.064-10.874-13.737-16.625-20.375l-3.188-3.875c-3.271-3.779-6.957-6.955-10.812-10.125l-1.485-1.235C395.704 259.16 381.97 251.173 367 244c.945-6.083 3.949-10.734 7-16l1.719-3.043c8.2-13.984 19.022-26.349 30.281-37.957l2.016-2.094c33.339-32.026 80.924-35.348 117.359-6.906ZM241.293 175.707a323.231 323.231 0 0 1 10.41 9.184c2.056 1.888 4.16 3.689 6.297 5.484 13.706 12.065 24.164 27.421 33.375 43.063l1.463 2.457 1.31 2.289 1.162 2.017C296 242 296 242 295 245c-2.09.965-2.09.965-4.938 1.938C267.115 256.007 244.89 275.623 230 295l-2.352 2.91c-6.834 8.58-12.65 17.7-18.382 27.045a225.093 225.093 0 0 1-3.078 4.815c-4.802 7.45-7.961 15.701-11.246 23.9a297.758 297.758 0 0 1-2.54 6.06c-3.64 8.902-5.96 18.047-8.152 27.395l-.89 3.79c-5.983 26.363-7.7 53.52-2.36 80.085.341 1.999.678 3.998 1 6-29.14-2.58-53.935-16.61-74.576-36.632-1.25-1.2-2.53-2.37-3.815-3.532-24.38-22.714-38.387-58.944-39.733-91.876C63.049 309.944 69.112 279.762 84 248l1.047-2.241C94.8 225.113 107.611 205.989 124 190l1.664-1.766c31.09-32.497 79.143-41.526 115.629-12.527Z" fill="#fff"/>
<path d="M238 330h1l.212 3.25c.268 4.055.556 8.108.85 12.161.123 1.74.242 3.481.355 5.222.736 11.298 2.318 21.518 5.583 32.367.344 1.414.676 2.832.984 4.254 1.888 8.157 4.779 14.561 9.114 21.625C258 412 258 412 259.488 415.043c4.32 8.449 10.993 15.71 17.387 22.648a256.27 256.27 0 0 1 5.75 6.497c5.654 6.472 11.813 12.27 18.375 17.812l2.168 1.867C314.066 472.958 326.663 480.056 339 487l2.33 1.375c7.115 4.078 14.29 6.817 22.108 9.25l3.729 1.168c23.818 7.3 52.996 12.873 76.833 2.207-3.254 12.583-11.671 23.253-20 33l-2.113 2.52c-5.41 6.256-11.313 11.474-17.887 16.48-.779.594-1.557 1.189-2.36 1.8-26.588 19.407-57.044 26.349-89.663 22.048-24.085-3.782-43.489-14.31-61.977-29.848l-2.008-1.629c-24.942-20.524-40.387-56.049-43.781-87.688-1.338-17.01-.697-33.983 2.789-50.683l.602-2.94C213.166 377.538 222.93 352.607 238 330Z" fill="#dcdcdc"/>
<path d="M382.41 90.375c15.855 11.291 28.99 25.577 40.859 40.877 1.83 2.357 3.619 4.636 5.731 6.748v3l-2.57 1.18c-34.94 16.663-69.147 50.495-82.919 86.976-.893 2.596-1.694 5.223-2.511 7.844h-20l-1.938-5.063C312.228 215.572 301.296 200.548 290 187l-1.324-1.613c-14.094-17.148-30.448-31.373-50.078-41.864C236 142 236 142 235 140c11.181-25.852 38.495-49.603 64.378-59.95 28.934-10.651 57.273-7.216 83.032 10.325Z" fill="#fff"/>
<path d="M96 226h1c1.8 7.66 2.436 15.16 2.875 23 2.714 41.15 21.936 70.071 52.125 97 5.065 4.049 10.429 7.538 16.01 10.827a243.15 243.15 0 0 1 5.814 3.556c4.687 2.936 9.432 5.774 14.176 8.617a634.493 634.493 0 0 1-3.438 16.512c-3.327 15.147-5.927 29.98-6.562 45.488l-.117 2.831c-.44 12.756.605 24.672 3.117 37.169.341 1.999.678 3.998 1 6-29.14-2.58-53.935-16.61-74.576-36.632-1.25-1.2-2.53-2.37-3.815-3.532-24.38-22.714-38.387-58.944-39.733-91.876C62.902 303.75 71.47 260.258 96 226ZM473 368l4 2 2 .875c2 1.125 2 1.125 3.688 2.875 18.448 17.95 52.434 26.568 77.387 26.492A80.407 80.407 0 0 0 573 399c1.957-.064 3.917-.086 5.875-.063l2.93.028L584 399c-3.712 12.77-13.642 23.877-22 34l-2.207 2.715c-14.924 17.527-37.167 30.948-58.98 37.66l-2.446.76c-6.086 1.77-12.05 2.477-18.367 2.865l.275-1.771c5.343-35.593 2.661-68.453-6.275-103.229-.334-1.333-.668-2.666-1-4Z" fill="#dcdcdc"/>
</svg>
